<svg xmlns="http://www.w3.org/2000/svg" viewBox="0 0 133.48 34.2" class="_app_1zamc logo-text"><g style="isolation:isolate"><path d="M45.62.08a.29.29,0,0,1,.09.21v1a.26.26,0,0,1-.09.21.24.24,0,0,1-.2.08H44a.23.23,0,0,1-.2-.08.25.25,0,0,1-.08-.21v-1a.32.32,0,0,1,.08-.21A.3.3,0,0,1,44,0h1.39A.28.28,0,0,1,45.62.08Zm-.2,2.34H44a.29.29,0,0,0-.2.07.3.3,0,0,0-.08.2V7.93a.27.27,0,0,0,.08.19.27.27,0,0,0,.2.09h1.39a.28.28,0,0,0,.2-.08.25.25,0,0,0,.09-.2V2.69a.27.27,0,0,0-.09-.2A.27.27,0,0,0,45.42,2.42Zm4.72,2.27q-.6-.12-.9-.21a1.12,1.12,0,0,1-.39-.21A.4.4,0,0,1,48.76,4a.37.37,0,0,1,.15-.31.66.66,0,0,1,.44-.13.86.86,0,0,1,.38.08,1.89,1.89,0,0,1,.35.2,2,2,0,0,0,.27.17.25.25,0,0,0,.16,0h1.22A.22.22,0,0,0,51.9,4,.29.29,0,0,0,52,3.8a1,1,0,0,0-.32-.64,2.29,2.29,0,0,0-.9-.6,3.58,3.58,0,0,0-1.41-.26A3.4,3.4,0,0,0,48,2.56a2.16,2.16,0,0,0-.87.67,1.54,1.54,0,0,0-.29.88c0,.93.64,1.52,1.93,1.78a5.41,5.41,0,0,1,.89.22,1.1,1.1,0,0,1,.4.21.44.44,0,0,1,.11.29.38.38,0,0,1-.2.33.91.91,0,0,1-.49.12A1.15,1.15,0,0,1,49,7a3,3,0,0,1-.4-.24.91.91,0,0,0-.21-.15.15.15,0,0,0-.11,0H46.94a.26.26,0,0,0-.18.07.22.22,0,0,0-.08.18,1,1,0,0,0,.29.65,2.3,2.3,0,0,0,.91.61,4,4,0,0,0,1.52.26,3.72,3.72,0,0,0,2.08-.5,1.56,1.56,0,0,0,.25-2.46A2.94,2.94,0,0,0,50.14,4.69ZM59.6,2.42h-.5a2.34,2.34,0,0,0-.93.18,2.11,2.11,0,0,0-.73.53V2.71a.26.26,0,0,0-.08-.21.28.28,0,0,0-.21-.08H55.79a.26.26,0,0,0-.2.08.3.3,0,0,0-.07.21V7.93a.24.24,0,0,0,.08.19.26.26,0,0,0,.19.09h1.47a.29.29,0,0,0,.21-.08.24.24,0,0,0,.08-.2V5.12a1,1,0,0,1,.24-.69.93.93,0,0,1,.69-.24H59.6a.25.25,0,0,0,.2-.09.27.27,0,0,0,.08-.19V2.69a.3.3,0,0,0-.08-.2A.27.27,0,0,0,59.6,2.42Zm6.32,1.33a3.44,3.44,0,0,1,.33,1.53v.28a.28.28,0,0,1-.08.2.29.29,0,0,1-.21.09H62.43v.06a1.47,1.47,0,0,0,.23.81A.76.76,0,0,0,63.3,7a.78.78,0,0,0,.43-.11,1.27,1.27,0,0,0,.3-.27.47.47,0,0,1,.17-.14.44.44,0,0,1,.19,0h1.46a.25.25,0,0,1,.17.06.18.18,0,0,1,.07.15,1.18,1.18,0,0,1-.32.68,2.67,2.67,0,0,1-1,.67,3.77,3.77,0,0,1-1.49.28,3,3,0,0,1-2.14-.73,2.85,2.85,0,0,1-.8-2.12V5.12a2.88,2.88,0,0,1,.83-2.07,2.9,2.9,0,0,1,2.1-.75,3.13,3.13,0,0,1,1.62.39A2.41,2.41,0,0,1,65.92,3.75Zm-1.72.94A1.32,1.32,0,0,0,64,3.86a.8.8,0,0,0-.66-.3.77.77,0,0,0-.65.3,1.32,1.32,0,0,0-.23.83v0H64.2Zm8-2.1A2.24,2.24,0,0,0,71,2.3,2.53,2.53,0,0,0,70,2.53a2.17,2.17,0,0,0-.77.59V2.69a.3.3,0,0,0-.08-.2.27.27,0,0,0-.2-.07H67.53a.27.27,0,0,0-.28.27V7.93a.31.31,0,0,0,.28.28H69a.25.25,0,0,0,.2-.09.27.27,0,0,0,.08-.19v-3a1,1,0,0,1,.26-.76,1,1,0,0,1,1.39,0,1.11,1.11,0,0,1,.24.77v3a.25.25,0,0,0,.09.2.28.28,0,0,0,.2.08H73a.25.25,0,0,0,.2-.09.24.24,0,0,0,.08-.19V4.82A3,3,0,0,0,73,3.45,2,2,0,0,0,72.17,2.59Zm7,.32a2.12,2.12,0,0,1,.66,1.64V7.93a.27.27,0,0,1-.27.28H78.19a.27.27,0,0,1-.2-.09.27.27,0,0,1-.08-.19V7.54a1.8,1.8,0,0,1-.68.56,2.25,2.25,0,0,1-1,.22,2.5,2.5,0,0,1-1.07-.23,1.82,1.82,0,0,1-.76-.63,1.55,1.55,0,0,1-.27-.88,1.48,1.48,0,0,1,.63-1.23,3.82,3.82,0,0,1,1.73-.65l1.38-.21V4.35a.91.91,0,0,0-.17-.6.74.74,0,0,0-.56-.19.86.86,0,0,0-.38.08,2.27,2.27,0,0,0-.34.23.85.85,0,0,1-.25.18.14.14,0,0,1-.11.08h-1.3a.24.24,0,0,1-.18-.07.19.19,0,0,1-.06-.17,1.28,1.28,0,0,1,.3-.68,2.28,2.28,0,0,1,.88-.64,3.49,3.49,0,0,1,1.46-.27A3,3,0,0,1,79.17,2.91Zm-1.32,2.7-.92.16c-.63.12-.94.34-.94.67a.48.48,0,0,0,.22.41.91.91,0,0,0,.54.15,1,1,0,0,0,.8-.32,1.32,1.32,0,0,0,.3-.93ZM88,2.3a2.06,2.06,0,0,0-1,.27,2,2,0,0,0-.74.69,1.71,1.71,0,0,0-1.69-1,2,2,0,0,0-1,.23,2.13,2.13,0,0,0-.69.54V2.69a.3.3,0,0,0-.08-.2.27.27,0,0,0-.2-.07H81.33a.29.29,0,0,0-.2.07.3.3,0,0,0-.08.2V7.93a.27.27,0,0,0,.08.19.27.27,0,0,0,.2.09h1.4a.25.25,0,0,0,.2-.09A.27.27,0,0,0,83,7.93V4.83a1.06,1.06,0,0,1,.22-.74.81.81,0,0,1,1.15,0,1.12,1.12,0,0,1,.22.75V7.93a.28.28,0,0,0,.08.2.32.32,0,0,0,.21.08h1.37a.25.25,0,0,0,.2-.09.27.27,0,0,0,.08-.19V4.84a1.12,1.12,0,0,1,.21-.75.75.75,0,0,1,.57-.24.74.74,0,0,1,.58.24,1.07,1.07,0,0,1,.22.75V7.93a.28.28,0,0,0,.08.2.32.32,0,0,0,.21.08h1.37a.25.25,0,0,0,.2-.09.27.27,0,0,0,.08-.19V4.77a2.65,2.65,0,0,0-.58-1.85A1.94,1.94,0,0,0,88,2.3ZM92.94,0H91.55a.3.3,0,0,0-.2.08.32.32,0,0,0-.08.21v1a.25.25,0,0,0,.08.21.24.24,0,0,0,.2.08h1.39a.28.28,0,0,0,.21-.08.29.29,0,0,0,.08-.21v-1a.32.32,0,0,0-.08-.21A.32.32,0,0,0,92.94,0Zm0,2.42H91.55a.29.29,0,0,0-.2.07.3.3,0,0,0-.08.2V7.93a.27.27,0,0,0,.08.19.27.27,0,0,0,.2.09h1.39a.32.32,0,0,0,.21-.08.28.28,0,0,0,.08-.2V2.69a.3.3,0,0,0-.08-.2A.31.31,0,0,0,92.94,2.42Zm6.47.17a2.21,2.21,0,0,0-1.13-.29,2.48,2.48,0,0,0-1.08.23,2.12,2.12,0,0,0-.78.59V2.69a.29.29,0,0,0-.07-.2.29.29,0,0,0-.2-.07H94.78a.29.29,0,0,0-.2.07.3.3,0,0,0-.08.2V7.93a.27.27,0,0,0,.08.19.27.27,0,0,0,.2.09h1.48a.25.25,0,0,0,.2-.09.27.27,0,0,0,.08-.19v-3a1.06,1.06,0,0,1,.25-.76.9.9,0,0,1,.7-.28.88.88,0,0,1,.7.27,1.11,1.11,0,0,1,.24.77v3a.28.28,0,0,0,.08.2.32.32,0,0,0,.21.08h1.48a.25.25,0,0,0,.2-.09.27.27,0,0,0,.08-.19V4.82a3,3,0,0,0-.29-1.37A2,2,0,0,0,99.41,2.59Zm8-.09a.26.26,0,0,1,.08.21V8a2.46,2.46,0,0,1-.76,2,3.24,3.24,0,0,1-2.16.67,3.76,3.76,0,0,1-1.74-.35,2.39,2.39,0,0,1-1-.8,1.52,1.52,0,0,1-.29-.75.26.26,0,0,1,.09-.19.31.31,0,0,1,.2-.07h1.49a.24.24,0,0,1,.18.05.32.32,0,0,1,.12.17,1,1,0,0,0,.29.38.87.87,0,0,0,.56.14.94.94,0,0,0,.71-.24,1.08,1.08,0,0,0,.24-.79V7.46a2.16,2.16,0,0,1-1.62.61,2.2,2.2,0,0,1-1.72-.65,2.94,2.94,0,0,1-.65-1.92V5.2a3.33,3.33,0,0,1,.61-2.13,2.12,2.12,0,0,1,1.77-.77,2.26,2.26,0,0,1,1,.22,2.11,2.11,0,0,1,.73.59v-.4a.26.26,0,0,1,.08-.21.23.23,0,0,1,.2-.08h1.35A.26.26,0,0,1,107.43,2.5Zm-1.94,2.71c0-.18,0-.29,0-.33a1.37,1.37,0,0,0-.27-.74.87.87,0,0,0-.71-.29.84.84,0,0,0-.72.3,1.45,1.45,0,0,0-.24.82v.24a2,2,0,0,0,.21,1,.8.8,0,0,0,.76.36.87.87,0,0,0,.71-.29,1.4,1.4,0,0,0,.27-.74S105.49,5.38,105.49,5.21ZM115,6.61h-.88a.52.52,0,0,1-.47-.2,1,1,0,0,1-.14-.59V3.93h1.39a.28.28,0,0,0,.2-.08.25.25,0,0,0,.09-.2v-1a.27.27,0,0,0-.09-.2.27.27,0,0,0-.2-.07h-1.39V.58a.27.27,0,0,0-.28-.28h-1.37a.3.3,0,0,0-.2.08.28.28,0,0,0-.08.2V2.42h-.88a.27.27,0,0,0-.28.27v1a.27.27,0,0,0,.09.2.27.27,0,0,0,.19.08h.88V6c0,1.48.79,2.22,2.36,2.22H115a.25.25,0,0,0,.2-.09.27.27,0,0,0,.08-.19v-1a.28.28,0,0,0-.08-.2A.25.25,0,0,0,115,6.61Zm7-1.3c0,.14,0,.31,0,.5a2.57,2.57,0,0,1-.82,1.86,3.9,3.9,0,0,1-4.31,0A2.53,2.53,0,0,1,116,5.81c0-.09,0-.26,0-.5s0-.4,0-.5A2.45,2.45,0,0,1,116.85,3,3.2,3.2,0,0,1,119,2.3a3.16,3.16,0,0,1,2.13.67A2.49,2.49,0,0,1,122,4.81C122,5,122,5.17,122,5.31Zm-2,0c0-.22,0-.37,0-.44a1.52,1.52,0,0,0-.26-.87.78.78,0,0,0-.68-.29.79.79,0,0,0-.68.29,1.53,1.53,0,0,0-.25.87v.89a1.53,1.53,0,0,0,.25.87.81.81,0,0,0,.68.28.8.8,0,0,0,.68-.28,1.52,1.52,0,0,0,.26-.87C119.93,5.68,119.93,5.53,119.93,5.31Z" style="fill:#a6aab4"></path> <path d="M5.53,21.62c0,.51,0,1.3,0,2.35s0,1.86,0,2.41C5.6,28.76,6.71,30,8.84,30A3.8,3.8,0,0,0,11,29.39a3.25,3.25,0,0,0,1.21-1.93,1.05,1.05,0,0,1,.31-.58.9.9,0,0,1,.59-.16h4a.66.66,0,0,1,.44.17.58.58,0,0,1,.18.43A6.27,6.27,0,0,1,16.52,31a7.29,7.29,0,0,1-3.16,2.38,11.75,11.75,0,0,1-4.52.82,9.56,9.56,0,0,1-6.36-2A7.47,7.47,0,0,1,0,26.52Q0,25.76,0,24t0-2.55A7.43,7.43,0,0,1,2.51,15.8a9.39,9.39,0,0,1,6.33-2,11.75,11.75,0,0,1,4.52.82A7.29,7.29,0,0,1,16.52,17a6.28,6.28,0,0,1,1.22,3.69.54.54,0,0,1-.18.42.66.66,0,0,1-.44.17h-4a.92.92,0,0,1-.58-.15,1.33,1.33,0,0,1-.32-.59A3.41,3.41,0,0,0,11,18.6a3.71,3.71,0,0,0-2.14-.55C6.71,18.05,5.6,19.24,5.53,21.62Zm26.81-1.18A5.41,5.41,0,0,1,34,24.63v8.58a.72.72,0,0,1-.2.5.66.66,0,0,1-.51.21H29.84a.74.74,0,0,1-.71-.71v-1a4.49,4.49,0,0,1-1.73,1.43,5.77,5.77,0,0,1-2.63.55A6.35,6.35,0,0,1,22,33.62,4.6,4.6,0,0,1,20.11,32a3.84,3.84,0,0,1-.7-2.24A3.76,3.76,0,0,1,21,26.65,10.05,10.05,0,0,1,25.42,25l3.51-.53v-.35a2.33,2.33,0,0,0-.42-1.53,1.86,1.86,0,0,0-1.45-.48,2.12,2.12,0,0,0-.95.2,4.87,4.87,0,0,0-.86.6,3.67,3.67,0,0,1-.65.45.34.34,0,0,1-.28.2H21a.61.61,0,0,1-.47-.19.54.54,0,0,1-.16-.44,3.12,3.12,0,0,1,.77-1.71,5.79,5.79,0,0,1,2.24-1.63,9,9,0,0,1,3.71-.68A7.64,7.64,0,0,1,32.34,20.44ZM29,27.32l-2.35.39c-1.59.31-2.38.87-2.38,1.7a1.22,1.22,0,0,0,.55,1.05,2.28,2.28,0,0,0,1.38.4,2.65,2.65,0,0,0,2-.82A3.33,3.33,0,0,0,29,27.66ZM41.4,13.8H37.86a.73.73,0,0,0-.52.2.67.67,0,0,0-.22.51v18.7a.67.67,0,0,0,.22.51.73.73,0,0,0,.52.2H41.4a.66.66,0,0,0,.51-.21.68.68,0,0,0,.2-.5V14.51a.66.66,0,0,0-.2-.51A.69.69,0,0,0,41.4,13.8Zm8.22,0H46.08a.73.73,0,0,0-.52.2.64.64,0,0,0-.22.51v18.7a.64.64,0,0,0,.22.51.73.73,0,0,0,.52.2h3.54a.66.66,0,0,0,.51-.21.72.72,0,0,0,.2-.5V14.51a.68.68,0,0,0-.71-.71Zm16,6.64a5.41,5.41,0,0,1,1.7,4.19v8.58a.72.72,0,0,1-.2.5.66.66,0,0,1-.51.21H63.08a.67.67,0,0,1-.49-.21.69.69,0,0,1-.21-.5v-1a4.64,4.64,0,0,1-1.73,1.43A5.84,5.84,0,0,1,58,34.2a6.27,6.27,0,0,1-2.73-.58A4.57,4.57,0,0,1,53.35,32a3.91,3.91,0,0,1-.7-2.24,3.75,3.75,0,0,1,1.61-3.13A10,10,0,0,1,58.66,25l3.52-.53v-.35a2.33,2.33,0,0,0-.43-1.53,1.84,1.84,0,0,0-1.44-.48,2.06,2.06,0,0,0-1,.2,4.56,4.56,0,0,0-.87.6,3.34,3.34,0,0,1-.65.45.34.34,0,0,1-.28.2H54.27a.61.61,0,0,1-.47-.19.5.5,0,0,1-.15-.44,3,3,0,0,1,.76-1.71,5.79,5.79,0,0,1,2.24-1.63,9,9,0,0,1,3.71-.68A7.62,7.62,0,0,1,65.58,20.44Zm-3.35,6.88-2.35.39c-1.59.31-2.38.87-2.38,1.7a1.22,1.22,0,0,0,.55,1.05,2.28,2.28,0,0,0,1.38.4,2.65,2.65,0,0,0,2-.82,3.33,3.33,0,0,0,.78-2.38Zm23.38-.77q0,.63,0,1a7.48,7.48,0,0,1-1.68,4.94,5.55,5.55,0,0,1-4.32,1.72,5.35,5.35,0,0,1-4.4-1.87v.88a.71.71,0,0,1-.19.5.69.69,0,0,1-.51.21H71.1a.75.75,0,0,1-.52-.2.66.66,0,0,1-.21-.51V14.51a.66.66,0,0,1,.21-.51.75.75,0,0,1,.52-.2h3.66a.68.68,0,0,1,.71.71v6a6,6,0,0,1,8.41.13,7.41,7.41,0,0,1,1.7,4.86Q85.61,25.91,85.61,26.55Zm-5.18,0c0-.39,0-.69,0-.88a3.91,3.91,0,0,0-.64-2.08,2.13,2.13,0,0,0-1.83-.75,2.24,2.24,0,0,0-1.8.72,3,3,0,0,0-.66,1.83q0,.38,0,1.05t0,1.08a3.43,3.43,0,0,0,.65,2,2.54,2.54,0,0,0,3.64,0,3.88,3.88,0,0,0,.64-2.08C80.42,27.24,80.43,27,80.43,26.55Z" style="fill:#fd6054"></path> <path d="M6.88,2.49A.25.25,0,0,1,7,2.67l0,.09L4.83,7.93a.38.38,0,0,1-.14.2.37.37,0,0,1-.25.08H3.2A.33.33,0,0,1,3,8.13a.38.38,0,0,1-.14-.2L.7,2.76a.22.22,0,0,1,0-.09.29.29,0,0,1,.07-.18A.25.25,0,0,1,1,2.42H2.27a.34.34,0,0,1,.34.23L3.82,6,5,2.65a.45.45,0,0,1,.12-.16.28.28,0,0,1,.21-.07H6.7A.24.24,0,0,1,6.88,2.49Zm6,1.26a3.44,3.44,0,0,1,.33,1.53v.28a.31.31,0,0,1-.29.29H9.4v.06a1.39,1.39,0,0,0,.23.81.76.76,0,0,0,.64.31.81.81,0,0,0,.43-.11,1.5,1.5,0,0,0,.3-.27.57.57,0,0,1,.16-.14.49.49,0,0,1,.2,0h1.46a.27.27,0,0,1,.17.06.18.18,0,0,1,.07.15,1.14,1.14,0,0,1-.33.68,2.72,2.72,0,0,1-1,.67,3.77,3.77,0,0,1-1.49.28,3,3,0,0,1-2.14-.73,2.81,2.81,0,0,1-.8-2.12V5.12a2.88,2.88,0,0,1,.82-2.07,2.91,2.91,0,0,1,2.11-.75,3.13,3.13,0,0,1,1.62.39A2.41,2.41,0,0,1,12.89,3.75Zm-1.72.94a1.26,1.26,0,0,0-.24-.83.85.85,0,0,0-1.3,0,1.26,1.26,0,0,0-.23.83v0h1.77Zm8.37-.94a3.44,3.44,0,0,1,.32,1.53v.28a.24.24,0,0,1-.08.2.25.25,0,0,1-.2.09H16.05v.06a1.32,1.32,0,0,0,.23.81.75.75,0,0,0,.63.31.76.76,0,0,0,.43-.11,1.54,1.54,0,0,0,.31-.27.57.57,0,0,1,.16-.14.49.49,0,0,1,.2,0h1.45a.28.28,0,0,1,.18.06.21.21,0,0,1,.07.15,1.14,1.14,0,0,1-.33.68,2.67,2.67,0,0,1-1,.67,3.72,3.72,0,0,1-1.48.28,3,3,0,0,1-2.14-.73A2.81,2.81,0,0,1,14,5.47V5.12a2.88,2.88,0,0,1,.82-2.07,2.91,2.91,0,0,1,2.11-.75,3.19,3.19,0,0,1,1.62.39A2.41,2.41,0,0,1,19.54,3.75Zm-1.72.94a1.26,1.26,0,0,0-.24-.83.77.77,0,0,0-.65-.3.79.79,0,0,0-.66.3,1.32,1.32,0,0,0-.22.83v0h1.77ZM26.57.38a.25.25,0,0,1,.09.2V7.93a.25.25,0,0,1-.09.2.28.28,0,0,1-.2.08H25a.31.31,0,0,1-.28-.28V7.58A2.09,2.09,0,0,1,23,8.32a2.19,2.19,0,0,1-1.7-.68,3,3,0,0,1-.66-1.94V4.91A2.9,2.9,0,0,1,21.35,3,2.16,2.16,0,0,1,23,2.3,2.12,2.12,0,0,1,24.65,3V.58a.25.25,0,0,1,.09-.2A.27.27,0,0,1,24.93.3h1.44A.28.28,0,0,1,26.57.38Zm-1.9,4.89a3.94,3.94,0,0,0,0-.42,1.12,1.12,0,0,0-.26-.71.87.87,0,0,0-.71-.29.81.81,0,0,0-.71.3,1.53,1.53,0,0,0-.26.82v.69a1.49,1.49,0,0,0,.26.81.81.81,0,0,0,.71.3.85.85,0,0,0,.72-.31,1.33,1.33,0,0,0,.25-.77A4.15,4.15,0,0,0,24.67,5.27Zm8.57-1.52a3.44,3.44,0,0,1,.33,1.53v.28a.28.28,0,0,1-.08.2.29.29,0,0,1-.21.09H29.75v.06a1.39,1.39,0,0,0,.24.81.74.74,0,0,0,.63.31.78.78,0,0,0,.43-.11,1.27,1.27,0,0,0,.3-.27.57.57,0,0,1,.17-.14.44.44,0,0,1,.19,0h1.46a.25.25,0,0,1,.17.06.19.19,0,0,1,.08.15,1.14,1.14,0,0,1-.33.68,2.67,2.67,0,0,1-1,.67,3.77,3.77,0,0,1-1.49.28,3,3,0,0,1-2.14-.73,2.85,2.85,0,0,1-.8-2.12V5.12a2.88,2.88,0,0,1,.83-2.07,2.9,2.9,0,0,1,2.1-.75,3.13,3.13,0,0,1,1.62.39A2.41,2.41,0,0,1,33.24,3.75Zm-1.72.94a1.32,1.32,0,0,0-.23-.83.8.8,0,0,0-.66-.3.77.77,0,0,0-.65.3,1.32,1.32,0,0,0-.23.83v0h1.77Zm8.81.12c0,.19,0,.36,0,.5s0,.31,0,.5a2.57,2.57,0,0,1-.82,1.86,3.21,3.21,0,0,1-2.15.65,3.22,3.22,0,0,1-2.16-.65,2.57,2.57,0,0,1-.82-1.86c0-.09,0-.26,0-.5s0-.4,0-.5A2.52,2.52,0,0,1,35.22,3a3.74,3.74,0,0,1,4.27,0A2.52,2.52,0,0,1,40.33,4.81Zm-2,.5c0-.22,0-.37,0-.44A1.61,1.61,0,0,0,38,4a.79.79,0,0,0-.68-.29.78.78,0,0,0-.68.29,1.52,1.52,0,0,0-.26.87v.89a1.52,1.52,0,0,0,.26.87.8.8,0,0,0,.68.28A.81.81,0,0,0,38,6.63a1.61,1.61,0,0,0,.25-.87C38.3,5.68,38.3,5.53,38.3,5.31Zm53,25.32h-2a.62.62,0,0,0-.47.2.68.68,0,0,0-.18.48v2a.66.66,0,0,0,.18.47.64.64,0,0,0,.47.18h2a.64.64,0,0,0,.47-.18.66.66,0,0,0,.18-.47v-2a.68.68,0,0,0-.18-.48A.62.62,0,0,0,91.25,30.63ZM111.71,18.9a5.68,5.68,0,0,0-2.82.71,5,5,0,0,0-1.94,1.9,4.55,4.55,0,0,0-4.42-2.61,5,5,0,0,0-4.14,1.9v-1a.63.63,0,0,0-.17-.47.59.59,0,0,0-.45-.19H96.58a.65.65,0,0,0-.47.19.64.64,0,0,0-.18.47V33.27a.66.66,0,0,0,.18.47.64.64,0,0,0,.47.18h1.25a.62.62,0,0,0,.46-.18.63.63,0,0,0,.19-.47v-8a4.45,4.45,0,0,1,1-3.21,3.16,3.16,0,0,1,2.33-1,3.27,3.27,0,0,1,2.43,1,4.49,4.49,0,0,1,1,3.23v7.94a.66.66,0,0,0,.18.47.64.64,0,0,0,.47.18h1.24a.64.64,0,0,0,.47-.18.63.63,0,0,0,.19-.47V25.33a4.48,4.48,0,0,1,1-3.21,3.17,3.17,0,0,1,2.34-1,3.28,3.28,0,0,1,2.47,1,4.61,4.61,0,0,1,.93,3.24v7.94a.63.63,0,0,0,.19.47.63.63,0,0,0,.46.18h1.22a.64.64,0,0,0,.47-.18.66.66,0,0,0,.18-.47V25.08a6.52,6.52,0,0,0-1.47-4.59A4.94,4.94,0,0,0,111.71,18.9Zm21.77,7.37v.51a.63.63,0,0,1-.19.47.62.62,0,0,1-.46.18H123v.26a5.29,5.29,0,0,0,1.14,3.14,3.37,3.37,0,0,0,2.77,1.31,4,4,0,0,0,2.17-.53,4.5,4.5,0,0,0,1.26-1.09,1.52,1.52,0,0,1,.4-.41,1.09,1.09,0,0,1,.48-.07h1.25a.74.74,0,0,1,.44.14.45.45,0,0,1,.18.37,2.52,2.52,0,0,1-.76,1.5,6.33,6.33,0,0,1-2.17,1.52,7.81,7.81,0,0,1-3.22.63,6.12,6.12,0,0,1-4.62-1.8,7.44,7.44,0,0,1-1.9-4.91l0-1,0-.93a7.46,7.46,0,0,1,1.9-4.88,6.12,6.12,0,0,1,4.62-1.81,6,6,0,0,1,4.83,2A8,8,0,0,1,133.48,26.27Zm-2.58-.85a4.76,4.76,0,0,0-1.08-3.23,3.63,3.63,0,0,0-2.89-1.25A3.58,3.58,0,0,0,124,22.19,4.85,4.85,0,0,0,123,25.42v.08h7.91Z" style="fill:#524655"></path></g></svg>
