<?xml version="1.0" encoding="UTF-8"?>
<svg xmlns="http://www.w3.org/2000/svg" xmlns:xlink="http://www.w3.org/1999/xlink" width="247pt" height="50pt" viewBox="0 0 247 50" version="1.1">
<g id="surface1">
<path style="fill-rule:nonzero;fill:rgb(100%,100%,100%);fill-opacity:1;stroke-width:2;stroke-linecap:round;stroke-linejoin:miter;stroke:rgb(15.686275%,15.686275%,15.686275%);stroke-opacity:1;stroke-miterlimit:4;" d="M 0.200215 0.366094 L 0.200215 80.008125 L 105.22971 80.008125 L 105.22971 38.939062 L 172.835669 106.533281 L 105.22971 174.060937 L 105.22971 132.991875 L 0.200215 132.991875 L 0.200215 212.633906 L 212.478255 212.633906 L 212.478255 0.366094 Z M 0.200215 0.366094 " transform="matrix(0.234123,0,0,0.234742,0,0)"/>
<path style="fill-rule:nonzero;fill:rgb(100%,100%,100%);fill-opacity:1;stroke-width:2;stroke-linecap:round;stroke-linejoin:miter;stroke:rgb(15.686275%,15.686275%,15.686275%);stroke-opacity:1;stroke-miterlimit:4;" d="M 274.077761 50.870391 L 274.077761 77.096016 L 304.510454 77.096016 L 304.510454 98.212969 L 274.077761 98.212969 L 274.077761 137.385 C 274.077761 141.678281 274.928675 144.590391 276.647188 146.121328 C 278.349016 147.602344 281.719304 148.351172 286.791419 148.351172 L 301.957711 148.351172 L 301.957711 169.468125 L 276.647188 169.468125 C 264.98466 169.468125 256.709103 167.038594 251.820518 162.212812 C 246.981987 157.320469 244.562721 149.033437 244.562721 137.385 L 244.562721 98.212969 L 229.880282 98.212969 L 229.880282 77.096016 L 244.562721 77.096016 L 244.562721 50.870391 Z M 274.077761 50.870391 " transform="matrix(0.234123,0,0,0.234742,0,0)"/>
<path style="fill-rule:nonzero;fill:rgb(100%,100%,100%);fill-opacity:1;stroke-width:2;stroke-linecap:round;stroke-linejoin:miter;stroke:rgb(15.686275%,15.686275%,15.686275%);stroke-opacity:1;stroke-miterlimit:4;" d="M 364.057756 127.899844 C 357.901142 127.899844 353.246141 128.948203 350.126123 131.028281 C 347.039474 133.125 345.504491 136.203516 345.504491 140.263828 C 345.504491 144.007969 346.739151 146.953359 349.20847 149.1 C 351.744528 151.180078 355.231607 152.228437 359.686393 152.228437 C 365.242361 152.228437 369.914047 150.248203 373.701449 146.287734 C 377.505535 142.277344 379.390894 137.268516 379.390894 131.277891 L 379.390894 127.899844 Z M 409.172887 116.767266 L 409.172887 169.468125 L 379.390894 169.468125 L 379.390894 155.772891 C 375.436646 161.380781 370.98186 165.474375 366.043222 168.053672 C 361.087899 170.583047 355.064762 171.847734 347.973811 171.847734 C 338.413541 171.847734 330.621837 169.085391 324.632069 163.527422 C 318.692355 157.919531 315.722498 150.664219 315.722498 141.761484 C 315.722498 130.928438 319.443162 122.974219 326.867804 117.915469 C 334.342501 112.856719 346.055083 110.327344 361.988866 110.327344 L 379.390894 110.327344 L 379.390894 108.030937 C 379.390894 103.354922 377.555589 99.943594 373.868295 97.796953 C 370.181 95.600391 364.441501 94.502109 356.633113 94.502109 C 350.309653 94.502109 344.436678 95.134453 338.980817 96.399141 C 333.54164 97.663828 328.48621 99.560859 323.814524 102.090234 L 323.814524 79.575469 C 330.137984 78.027891 336.478128 76.879688 342.868326 76.114219 C 349.24184 75.282187 355.615353 74.866172 361.988866 74.866172 C 378.656772 74.866172 390.669677 78.177656 398.027581 84.767344 C 405.452224 91.307109 409.172887 101.97375 409.172887 116.767266 Z M 409.172887 116.767266 " transform="matrix(0.234123,0,0,0.234742,0,0)"/>
<path style="fill-rule:nonzero;fill:rgb(100%,100%,100%);fill-opacity:1;stroke-width:2;stroke-linecap:round;stroke-linejoin:miter;stroke:rgb(15.686275%,15.686275%,15.686275%);stroke-opacity:1;stroke-miterlimit:4;" d="M 436.468877 41.152266 L 465.983916 41.152266 L 465.983916 110.992969 L 499.953742 77.096016 L 534.273944 77.096016 L 489.158812 119.496328 L 537.811077 169.468125 L 502.022631 169.468125 L 465.983916 130.945078 L 465.983916 169.468125 L 436.468877 169.468125 Z M 436.468877 41.152266 " transform="matrix(0.234123,0,0,0.234742,0,0)"/>
<path style="fill-rule:nonzero;fill:rgb(100%,100%,100%);fill-opacity:1;stroke-width:2;stroke-linecap:round;stroke-linejoin:miter;stroke:rgb(15.686275%,15.686275%,15.686275%);stroke-opacity:1;stroke-miterlimit:4;" d="M 636.517112 123.040781 L 636.517112 131.444297 L 567.492962 131.444297 C 568.2104 138.366797 570.713088 143.575312 575.001028 147.036563 C 579.288968 150.497812 585.278735 152.228437 592.987016 152.228437 C 599.193684 152.228437 605.550512 151.313203 612.024133 149.499375 C 618.581177 147.635625 625.288382 144.84 632.162434 141.095859 L 632.162434 163.860234 C 625.17159 166.489453 618.197432 168.469687 611.206588 169.800938 C 604.23243 171.165469 597.241587 171.847734 590.267428 171.847734 C 573.549469 171.847734 560.552173 167.621016 551.258856 159.150937 C 542.015593 150.630937 537.393962 138.699609 537.393962 123.356953 C 537.393962 108.297187 541.93217 96.449062 551.008587 87.829219 C 560.135058 79.192734 572.665185 74.866172 588.615653 74.866172 C 603.131247 74.866172 614.727037 79.242656 623.419708 87.978984 C 632.162434 96.731953 636.517112 108.413672 636.517112 123.040781 Z M 606.184527 113.222812 C 606.184527 107.614922 604.532752 103.105312 601.229204 99.693984 C 597.992393 96.232734 593.721138 94.502109 588.448808 94.502109 C 582.725993 94.502109 578.087677 96.11625 574.517175 99.361172 C 570.929988 102.556172 568.710938 107.165625 567.826654 113.222812 Z M 606.184527 113.222812 " transform="matrix(0.234123,0,0,0.234742,0,0)"/>
<path style="fill-rule:nonzero;fill:rgb(100%,100%,100%);fill-opacity:1;stroke-width:2;stroke-linecap:round;stroke-linejoin:miter;stroke:rgb(15.686275%,15.686275%,15.686275%);stroke-opacity:1;stroke-miterlimit:4;" d="M 700.519199 127.899844 C 694.362585 127.899844 689.707585 128.948203 686.587566 131.028281 C 683.500917 133.125 681.965935 136.203516 681.965935 140.263828 C 681.965935 144.007969 683.200595 146.953359 685.669914 149.1 C 688.205972 151.180078 691.693051 152.228437 696.147837 152.228437 C 701.703805 152.228437 706.37549 150.248203 710.162892 146.287734 C 713.966979 142.277344 715.852337 137.268516 715.852337 131.277891 L 715.852337 127.899844 Z M 745.634331 116.767266 L 745.634331 169.468125 L 715.852337 169.468125 L 715.852337 155.772891 C 711.89809 161.380781 707.443304 165.474375 702.504665 168.053672 C 697.549342 170.583047 691.526205 171.847734 684.435254 171.847734 C 674.874984 171.847734 667.099965 169.085391 661.093513 163.527422 C 655.170483 157.919531 652.200626 150.664219 652.200626 141.761484 C 652.200626 130.928438 655.904605 122.974219 663.329248 117.915469 C 670.803944 112.856719 682.516526 110.327344 698.45031 110.327344 L 715.852337 110.327344 L 715.852337 108.030937 C 715.852337 103.354922 714.017033 99.943594 710.329738 97.796953 C 706.642444 95.600391 700.902945 94.502109 693.094557 94.502109 C 686.771097 94.502109 680.898121 95.134453 675.44226 96.399141 C 670.003084 97.663828 664.947653 99.560859 660.275968 102.090234 L 660.275968 79.575469 C 666.599428 78.027891 672.939572 76.879688 679.32977 76.114219 C 685.703283 75.282187 692.076797 74.866172 698.45031 74.866172 C 715.118215 74.866172 727.13112 78.177656 734.489025 84.767344 C 741.913667 91.307109 745.634331 101.97375 745.634331 116.767266 Z M 745.634331 116.767266 " transform="matrix(0.234123,0,0,0.234742,0,0)"/>
<path style="fill-rule:nonzero;fill:rgb(100%,100%,100%);fill-opacity:1;stroke-width:2;stroke-linecap:round;stroke-linejoin:miter;stroke:rgb(15.686275%,15.686275%,15.686275%);stroke-opacity:1;stroke-miterlimit:4;" d="M 833.695597 41.152266 L 833.695597 60.521953 L 817.378068 60.521953 C 813.190236 60.521953 810.287117 61.287422 808.635343 62.835 C 806.983568 64.316016 806.166024 66.928594 806.166024 70.672734 L 806.166024 77.096016 L 831.393124 77.096016 L 831.393124 98.212969 L 806.166024 98.212969 L 806.166024 169.468125 L 776.634299 169.468125 L 776.634299 98.212969 L 761.95186 98.212969 L 761.95186 77.096016 L 776.634299 77.096016 L 776.634299 70.672734 C 776.634299 60.605156 779.43731 53.183437 785.043332 48.407578 C 790.649355 43.565156 799.342026 41.152266 811.104662 41.152266 Z M 833.695597 41.152266 " transform="matrix(0.234123,0,0,0.234742,0,0)"/>
<path style="fill-rule:nonzero;fill:rgb(100%,100%,100%);fill-opacity:1;stroke-width:2;stroke-linecap:round;stroke-linejoin:miter;stroke:rgb(15.686275%,15.686275%,15.686275%);stroke-opacity:1;stroke-miterlimit:4;" d="M 846.492678 77.096016 L 876.007718 77.096016 L 876.007718 169.468125 L 846.492678 169.468125 Z M 846.492678 41.152266 L 876.007718 41.152266 L 876.007718 65.23125 L 846.492678 65.23125 Z M 846.492678 41.152266 " transform="matrix(0.234123,0,0,0.234742,0,0)"/>
<path style="fill-rule:nonzero;fill:rgb(100%,100%,100%);fill-opacity:1;stroke-width:2;stroke-linecap:round;stroke-linejoin:miter;stroke:rgb(15.686275%,15.686275%,15.686275%);stroke-opacity:1;stroke-miterlimit:4;" d="M 904.538367 41.152266 L 934.070091 41.152266 L 934.070091 169.468125 L 904.538367 169.468125 Z M 904.538367 41.152266 " transform="matrix(0.234123,0,0,0.234742,0,0)"/>
<path style="fill-rule:nonzero;fill:rgb(100%,100%,100%);fill-opacity:1;stroke-width:2;stroke-linecap:round;stroke-linejoin:miter;stroke:rgb(15.686275%,15.686275%,15.686275%);stroke-opacity:1;stroke-miterlimit:4;" d="M 1054.799785 123.040781 L 1054.799785 131.444297 L 985.775636 131.444297 C 986.493073 138.366797 988.979077 143.575312 993.267017 147.036563 C 997.554956 150.497812 1003.561409 152.228437 1011.253005 152.228437 C 1017.459672 152.228437 1023.816501 151.313203 1030.306807 149.499375 C 1036.847166 147.635625 1043.554371 144.84 1050.428422 141.095859 L 1050.428422 163.860234 C 1043.437579 166.489453 1036.46342 168.469687 1029.472577 169.800938 C 1022.498419 171.165469 1015.507575 171.847734 1008.533417 171.847734 C 991.815457 171.847734 978.818162 167.621016 969.524845 159.150937 C 960.281582 150.630937 955.676635 138.699609 955.676635 123.356953 C 955.676635 108.297187 960.198159 96.449062 969.274576 87.829219 C 978.401047 79.192734 990.931174 74.866172 1006.881642 74.866172 C 1021.397236 74.866172 1032.993026 79.242656 1041.685697 87.978984 C 1050.428422 96.731953 1054.799785 108.413672 1054.799785 123.040781 Z M 1024.450516 113.222812 C 1024.450516 107.614922 1022.798741 103.105312 1019.495192 99.693984 C 1016.258382 96.232734 1011.987127 94.502109 1006.714796 94.502109 C 1000.991982 94.502109 996.353666 96.11625 992.783164 99.361172 C 989.212661 102.556172 986.976926 107.165625 986.092643 113.222812 Z M 1024.450516 113.222812 " transform="matrix(0.234123,0,0,0.234742,0,0)"/>
</g>
</svg>
