<svg id="bd1a0810-9c10-4024-bdfb-1e26be37e849" data-name="Layer 1" xmlns="http://www.w3.org/2000/svg" viewBox="0 0 609.12 108.219"><title>logo</title><path id="ba42da03-60da-4584-a466-b326f2ff85f8" data-name="Shape 316 1" d="M103.7,82.32l9.749,25.9L82.462,92.272a78.666,78.666,0,0,1-20.611,2.761H61.7C27.623,95.033,0,73.759,0,47.516S27.626,0,61.7,0s61.7,21.274,61.7,47.516c0,13.747-7.583,26.129-19.7,34.8Z" style="fill:#fff;fill-rule:evenodd"/><path d="M177.648,77.459a3.158,3.158,0,0,1-2.13-.644,4.84,4.84,0,0,1-1.239-1.833L155.457,29.016a2.582,2.582,0,0,1-.1-.793,2.2,2.2,0,0,1,2.278-2.278h11.789a3.053,3.053,0,0,1,2.972,2.08l10.8,29.621,10.9-29.621a3.769,3.769,0,0,1,.991-1.436,2.654,2.654,0,0,1,1.882-.644h11.888a2.261,2.261,0,0,1,1.585.644,2.134,2.134,0,0,1,.694,1.634l-.2.793L192.21,74.982a4.556,4.556,0,0,1-1.288,1.833,3.36,3.36,0,0,1-2.179.644H177.648Zm55.154.99q-12.087,0-19.021-6.488t-7.133-18.872V50.018q.4-11.79,7.331-18.426T232.7,24.954a28.3,28.3,0,0,1,14.413,3.418,21.641,21.641,0,0,1,8.817,9.411,30.678,30.678,0,0,1,2.923,13.622v2.476a2.538,2.538,0,0,1-2.576,2.576h-31.4v.594a12.423,12.423,0,0,0,2.081,7.182,6.563,6.563,0,0,0,5.647,2.725,6.867,6.867,0,0,0,3.813-.941,13.251,13.251,0,0,0,2.725-2.427,5.176,5.176,0,0,1,1.436-1.239,4.471,4.471,0,0,1,1.734-.248H255.29a2.3,2.3,0,0,1,1.535.546,1.688,1.688,0,0,1,.644,1.337q0,2.576-2.922,6.043a23.2,23.2,0,0,1-8.52,5.944A32.483,32.483,0,0,1,232.8,78.449Zm7.826-32.1v-.2q0-4.755-2.081-7.38a7.031,7.031,0,0,0-5.844-2.625,6.9,6.9,0,0,0-5.8,2.625q-2.031,2.625-2.031,7.38v.2Zm43.365,32.1q-12.086,0-19.021-6.488T257.84,53.089V50.018q.4-11.79,7.331-18.426t18.723-6.638a28.3,28.3,0,0,1,14.414,3.418,21.641,21.641,0,0,1,8.817,9.411,30.691,30.691,0,0,1,2.922,13.622v2.476a2.538,2.538,0,0,1-2.576,2.576h-31.4v.594a12.422,12.422,0,0,0,2.08,7.182,6.563,6.563,0,0,0,5.647,2.725,6.87,6.87,0,0,0,3.814-.941,13.221,13.221,0,0,0,2.724-2.427,5.176,5.176,0,0,1,1.437-1.239A4.468,4.468,0,0,1,293.5,62.1h12.978a2.3,2.3,0,0,1,1.535.546,1.685,1.685,0,0,1,.644,1.337q0,2.576-2.922,6.043a23.185,23.185,0,0,1-8.52,5.944,32.483,32.483,0,0,1-13.225,2.476Zm7.826-32.1v-.2q0-4.755-2.08-7.38a7.032,7.032,0,0,0-5.845-2.625,6.893,6.893,0,0,0-5.8,2.625q-2.031,2.625-2.031,7.38v.2Zm38.511,32.1q-9.609,0-15.107-6.043t-5.9-17.237l-.1-3.467.1-3.567q.4-10.8,5.944-16.989t15.058-6.192q8.916,0,14.365,5.746V9.6a2.326,2.326,0,0,1,.743-1.783,2.457,2.457,0,0,1,1.733-.694h12.78a2.585,2.585,0,0,1,1.833.694,2.329,2.329,0,0,1,.743,1.783V74.982a2.329,2.329,0,0,1-.743,1.783,2.585,2.585,0,0,1-1.833.694H348.162a2.539,2.539,0,0,1-2.477-2.477V71.911q-5.349,6.538-15.355,6.538Zm5.746-13.77q4.26,0,6.34-2.724A12,12,0,0,0,344.7,55.07q.2-2.774.2-3.765,0-1.089-.2-3.665a10.439,10.439,0,0,0-2.328-6.39,7.766,7.766,0,0,0-6.291-2.526q-4.458,0-6.39,2.625a13.606,13.606,0,0,0-2.229,7.282l-.1,3.071.1,3.071a13.6,13.6,0,0,0,2.229,7.281q1.932,2.625,6.39,2.625Zm53.965,13.77q-12.086,0-19.02-6.488t-7.133-18.872V50.018q.4-11.79,7.331-18.426t18.723-6.638a28.3,28.3,0,0,1,14.414,3.418,21.641,21.641,0,0,1,8.817,9.411A30.691,30.691,0,0,1,416.1,51.405v2.476a2.538,2.538,0,0,1-2.575,2.576h-31.4v.594a12.422,12.422,0,0,0,2.08,7.182,6.564,6.564,0,0,0,5.647,2.725,6.87,6.87,0,0,0,3.814-.941,13.221,13.221,0,0,0,2.724-2.427,5.19,5.19,0,0,1,1.437-1.239,4.468,4.468,0,0,1,1.733-.248h12.978a2.3,2.3,0,0,1,1.535.546,1.685,1.685,0,0,1,.644,1.337q0,2.576-2.922,6.043a23.185,23.185,0,0,1-8.52,5.944,32.48,32.48,0,0,1-13.225,2.476Zm7.826-32.1v-.2q0-4.755-2.08-7.38a7.032,7.032,0,0,0-5.845-2.625,6.9,6.9,0,0,0-5.8,2.625q-2.031,2.625-2.031,7.38v.2Zm43.96,32.1q-12.483,0-19.169-5.8T415.377,56.16q-.1-1.288-.1-4.458t.1-4.458q.594-10.5,7.479-16.4t18.971-5.894q12.086,0,18.971,5.894t7.479,16.4q.2,2.575.2,4.458t-.2,4.458q-.594,10.7-7.281,16.494T441.827,78.449Zm0-12.482q4.062,0,6.043-2.526t2.279-7.777q.1-.99.1-3.962t-.1-3.963q-.3-5.151-2.279-7.727t-6.043-2.576q-4.062,0-6.043,2.576t-2.279,7.727l-.1,3.963.1,3.962q.3,5.251,2.279,7.777T441.827,65.967ZM473.3,77.459a2.2,2.2,0,0,1-2.278-2.279V68.345a2.385,2.385,0,0,1,.644-1.684,2.131,2.131,0,0,1,1.634-.694h6.836a2.134,2.134,0,0,1,1.635.694,2.384,2.384,0,0,1,.643,1.684V75.18a2.2,2.2,0,0,1-2.278,2.279Zm16.147,0a2.2,2.2,0,0,1-2.279-2.279V28.223a2.2,2.2,0,0,1,2.279-2.278h4.161a2.053,2.053,0,0,1,1.585.644,2.316,2.316,0,0,1,.594,1.634v3.369q5.349-6.639,14.464-6.638,10.9,0,15.454,9.114a17.491,17.491,0,0,1,6.786-6.637,19.774,19.774,0,0,1,9.857-2.477A17.3,17.3,0,0,1,555.627,30.5q5.151,5.547,5.151,16.048V75.18a2.2,2.2,0,0,1-2.279,2.279H554.24a2.2,2.2,0,0,1-2.279-2.279V47.442q0-7.926-3.269-11.343a11.378,11.378,0,0,0-8.619-3.418A11,11,0,0,0,531.9,36.2q-3.417,3.516-3.418,11.244V75.18a2.2,2.2,0,0,1-2.278,2.279h-4.359a2.2,2.2,0,0,1-2.278-2.279V47.442q0-7.825-3.418-11.293a11.418,11.418,0,0,0-8.47-3.468,11.073,11.073,0,0,0-8.173,3.468q-3.418,3.466-3.418,11.194V75.18a2.2,2.2,0,0,1-2.278,2.279Zm96.785.99q-10.1,0-16.147-6.29t-6.638-17.188l-.1-3.368.1-3.269q.6-10.7,6.638-17.04t16.147-6.34q10.9,0,16.891,6.935t5.993,18.822v1.783a2.2,2.2,0,0,1-2.278,2.279H572.466v.891a18.406,18.406,0,0,0,3.963,11,11.838,11.838,0,0,0,9.708,4.557,14.076,14.076,0,0,0,7.579-1.833,16.173,16.173,0,0,0,4.408-3.814,5.145,5.145,0,0,1,1.387-1.437,4.087,4.087,0,0,1,1.684-.247h4.359a2.444,2.444,0,0,1,1.535.5,1.55,1.55,0,0,1,.644,1.288q0,2.18-2.675,5.25a21.872,21.872,0,0,1-7.578,5.3,26.919,26.919,0,0,1-11.244,2.228Zm13.869-30.413v-.3q0-6.934-3.764-11.293a12.675,12.675,0,0,0-10.105-4.359q-6.44,0-10.105,4.359t-3.665,11.293v.3Z" style="fill:#fff"/><path id="a0f2161b-35a2-44d5-be83-dccdace59d4d" data-name="Forma 1 copy 7" d="M51.473,28.363a2.308,2.308,0,0,1,2.174,0L79.531,45.987a1.972,1.972,0,0,1,0,3.523L53.647,67.134a2.3,2.3,0,0,1-2.173,0,2.017,2.017,0,0,1-1.087-1.762V30.126a2.018,2.018,0,0,1,1.086-1.763Z" style="fill:#fe6054;fill-rule:evenodd"/></svg>