<?xml version="1.0" encoding="UTF-8" standalone="no"?>
<svg
   xmlns:dc="http://purl.org/dc/elements/1.1/"
   xmlns:cc="http://creativecommons.org/ns#"
   xmlns:rdf="http://www.w3.org/1999/02/22-rdf-syntax-ns#"
   xmlns:svg="http://www.w3.org/2000/svg"
   xmlns="http://www.w3.org/2000/svg"
   xmlns:sodipodi="http://sodipodi.sourceforge.net/DTD/sodipodi-0.dtd"
   xmlns:inkscape="http://www.inkscape.org/namespaces/inkscape"
   width="200"
   height="30.277494"
   viewBox="0 0 160 24.221996"
   version="1.1"
   id="svg2"
   inkscape:version="0.48.0 r9654"
   sodipodi:docname="NewPicture023.svg">
  <metadata
     id="metadata24">
    <rdf:RDF>
      <cc:Work
         rdf:about="">
        <dc:format>image/svg+xml</dc:format>
        <dc:type
           rdf:resource="http://purl.org/dc/dcmitype/StillImage" />
      </cc:Work>
    </rdf:RDF>
  </metadata>
  <defs
     id="defs22" />
  <sodipodi:namedview
     pagecolor="#ffffff"
     bordercolor="#666666"
     borderopacity="1"
     objecttolerance="10"
     gridtolerance="10"
     guidetolerance="10"
     inkscape:pageopacity="0"
     inkscape:pageshadow="2"
     inkscape:window-width="1680"
     inkscape:window-height="988"
     id="namedview20"
     showgrid="false"
     fit-margin-top="0"
     fit-margin-left="0"
     fit-margin-right="0"
     fit-margin-bottom="0"
     inkscape:zoom="1.050338"
     inkscape:cx="-75.817879"
     inkscape:cy="27.01791"
     inkscape:window-x="0"
     inkscape:window-y="0"
     inkscape:window-maximized="1"
     inkscape:current-layer="svg2" />
  <g
     id="#ffffffff"
     transform="translate(-696.27823,-142.89233)" />
  <g
     id="#007dc3ff"
     transform="matrix(0.10513613,0,0,0.10513613,-1.614891,-4.1854522)">
    <path
       d="m 335.08,40.21 c 25.84,-2 52.81,3.53 74.45,18.2 20.19,13.42 34.82,34.41 41.75,57.54 8.12,27.27 7.71,57.31 -2.67,83.93 -8.57,22.21 -24.34,41.68 -44.68,54.14 -23.91,14.73 -53.46,19.27 -80.91,14.07 -24.98,-4.52 -48.22,-18.19 -64.09,-38.02 -19.41,-23.82 -28.05,-55.56 -25.32,-85.98 1.78,-27.15 12.46,-54.23 32.02,-73.48 18.27,-18.43 43.76,-28.62 69.45,-30.4 m -1.54,33.47 c -15.17,2.63 -28.87,11.43 -38.34,23.46 -14.1,17.9 -20.01,41.33 -18.82,63.87 1.16,18.38 6.54,36.95 17.86,51.71 8.42,11.12 20.61,19.44 34.23,22.63 16.24,3.86 34.15,2.23 48.76,-6.16 13.76,-7.83 23.71,-21.19 29.43,-35.77 9.2,-23.66 9.68,-50.78 0.47,-74.51 C 401.84,105.19 393.07,92.55 381.01,83.97 367.5,74.15 349.87,70.68 333.54,73.68 z"
       id="path6"
       inkscape:connector-curvature="0"
       style="fill:#007dc3" />
    <path
       d="m 566.98,44.95 c 18.16,-5.47 37.51,-6.36 56.22,-3.55 9.88,1.48 19.75,3.49 29.08,7.15 -1.34,11.21 -2.53,22.45 -3.33,33.72 -12.7,-5.32 -26.24,-8.79 -40.01,-9.5 -15.35,-0.95 -31.19,3.25 -43.51,12.61 -16.48,12.33 -26.35,31.87 -29.84,51.87 -3.39,20.08 -1.2,41.31 7.36,59.88 6.28,13.62 16.73,25.5 30.14,32.42 24.4,12.29 54.98,9.49 77.9,-4.85 0.71,12.16 1.99,24.27 2.76,36.43 -15.56,7.04 -32.86,8.89 -49.76,9.05 -22.14,0.13 -44.54,-5.72 -63.02,-18.1 -14.77,-9.7 -26.99,-23.16 -35.44,-38.66 -11.41,-20.8 -16.15,-45.06 -14.24,-68.65 1.6,-23.89 9.71,-47.75 25.05,-66.35 12.92,-16.01 30.94,-27.67 50.64,-33.47 z"
       id="path8"
       inkscape:connector-curvature="0"
       style="fill:#007dc3" />
    <path
       d="m 727.2,56.09 c 17.27,-11.43 38.21,-16.54 58.79,-16.27 17.93,0.26 36.38,3.75 51.71,13.48 14.2,8.75 24.75,22.53 31.27,37.74 9.81,22.98 12.53,48.34 12.38,73.13 -52.28,0 -104.55,-0.02 -156.82,0 -0.02,17.82 6.27,35.76 18.27,49.04 15.32,17.35 39.35,26.4 62.3,23.65 16.84,-1.63 33.22,-6.98 48.3,-14.54 3.96,-1.99 7.79,-4.28 11.25,-7.05 -0.14,13.53 -0.07,27.07 -0.04,40.61 -11.84,4.59 -23.81,9.11 -36.35,11.37 -20.36,3.68 -41.37,3.99 -61.76,0.44 -19.19,-3.42 -37.98,-11.36 -52.21,-24.93 -11.73,-10.87 -20.03,-25.03 -25.16,-40.1 -4.98,-15.03 -7.4,-30.88 -7.56,-46.7 -0.68,-18.99 2.18,-38.28 9.62,-55.84 7.41,-17.73 19.87,-33.49 36.01,-44.03 m 14.62,34.74 c -10.36,11.9 -15.29,27.42 -17.43,42.82 6.85,0.41 13.71,0.08 20.56,0.19 31.18,-0.01 62.37,0.01 93.55,-0.01 -0.38,-16.2 -4.8,-33.13 -16.23,-45.13 -20.64,-22.52 -60.89,-21.16 -80.45,2.13 z"
       id="path10"
       inkscape:connector-curvature="0"
       style="fill:#007dc3" />
    <path
       d="m 1010.02,43.87 c 16.36,-5.06 33.99,-5.13 50.68,-1.65 13.44,2.84 26.33,9.2 35.87,19.22 8.96,9.41 14.87,21.39 18.21,33.87 3.39,12.58 4.74,25.67 4.57,38.68 -0.01,43.67 0,87.34 0,131.01 -13.51,0 -27.01,0 -40.51,0 -0.01,-31.34 0,-62.67 0,-94 -0.13,-20.12 1.01,-40.52 -3.59,-60.27 -2.64,-11.53 -7.87,-23.19 -17.78,-30.21 -9.67,-6.62 -22,-8.88 -33.51,-7.37 -14.13,1.24 -27.87,7.73 -37.29,18.42 -10.2,11.5 -15.69,26.39 -18.49,41.32 -3.58,18.48 -2.41,37.37 -2.6,56.07 0,25.34 -0.01,50.69 0.01,76.03 -13.59,0.02 -27.17,0.01 -40.75,0.01 -0.01,-73.33 -0.01,-146.67 0,-220 13.1,0 26.21,0 39.32,0 0.12,11.81 -0.23,23.62 0.19,35.41 2.09,-2.67 3.47,-5.81 5.45,-8.56 9.54,-13.73 24.37,-23.17 40.22,-27.98 z"
       id="path12"
       inkscape:connector-curvature="0"
       style="fill:#007dc3" />
    <path
       d="m 1415.17,40.24 c 22.28,-1.76 45.29,2.05 65.17,12.5 15.41,8.13 28.68,20.24 38.11,34.89 10.07,15.5 15.91,33.54 17.85,51.86 2.88,24.32 -1.16,49.6 -12.4,71.43 -8.17,15.9 -20.25,29.79 -34.94,39.99 -31.8,22.04 -75.11,25.08 -110.31,9.55 -18.16,-8.14 -34,-21.4 -45.08,-37.95 -10.84,-15.91 -17.37,-34.59 -19.44,-53.7 -2.16,-22.28 0.6,-45.31 9.7,-65.88 7.47,-17.2 19.64,-32.38 34.98,-43.19 16.47,-11.65 36.31,-18.05 56.36,-19.5 m -1.65,33.48 c -13.92,2.52 -26.71,10.17 -35.92,20.86 -11.29,12.95 -17.77,29.57 -20.14,46.46 -2.78,21.28 0.62,43.64 11.01,62.54 7.64,13.93 20.14,25.46 35.4,30.4 17.67,5.61 37.86,4.37 54.04,-5.01 12.51,-7.31 21.91,-19.16 27.66,-32.33 8.83,-20.31 10.73,-43.5 5.76,-65.04 -4.08,-17.49 -13.11,-34.25 -27.28,-45.58 -13.93,-11.35 -32.97,-15.61 -50.53,-12.3 z"
       id="path14"
       inkscape:connector-curvature="0"
       style="fill:#007dc3" />
    <path
       d="m 15.36,45.01 c 14.86,-0.02 29.72,0 44.58,-0.01 19.2,58.36 38.72,116.62 57.95,174.97 0.55,1.65 1.18,3.27 1.83,4.9 6.91,-19.01 13.06,-38.31 19.69,-57.43 13.81,-40.82 27.74,-81.61 41.52,-122.44 13.52,0.01 27.04,-0.03 40.56,0.02 -26.23,73.33 -52.59,146.62 -78.81,219.96 -16.17,0.05 -32.33,0 -48.5,0.02 C 68,191.64 41.63,118.34 15.36,45.01 z"
       id="path16"
       inkscape:connector-curvature="0"
       style="fill:#007dc3" />
    <path
       d="m 1141.84,45 c 49.44,0 98.88,0 148.32,0 0,11 0,22 0,33 -19.39,0.01 -38.77,0 -58.16,0 0,40.67 -0.01,81.35 0.01,122.02 0.08,11.14 4.17,22.8 12.97,30.01 5.56,4.7 12.79,7 20,7.34 9.92,0.03 20.04,-2.3 28.42,-7.78 -0.11,11.51 -0.03,23.02 -0.05,34.53 -12.43,3.64 -25.29,6.56 -38.32,6.01 -11.04,-0.52 -22.22,-2.24 -32.34,-6.87 -10.27,-4.66 -19.06,-12.72 -24.11,-22.85 -5.15,-9.97 -7.06,-21.29 -7.15,-32.43 -0.02,-43.32 -0.01,-86.65 -0.01,-129.98 -16.53,-0.01 -33.06,0.01 -49.58,0 -0.01,-11 -0.01,-22 0,-33 z"
       id="path18"
       inkscape:connector-curvature="0"
       style="fill:#007dc3" />
  </g>
</svg>
